# xmcd
#
# Track frame offsets: 
#        150
#        1725
#        17084
#        34735
#        46763
#
# Disc length: 1106 seconds
#
# Revision: 2
# Processed by: cddbd v1.5.2PL0 Copyright (c) Steve Scherf et al.
# Submitted via: ExactAudioCopy v0.99pb3
#
DISCID=2a045005
DTITLE=Those Poor Bastards - Country Bullshit EP
DYEAR=2005
DGENRE=Country
TTITLE0=Raw and Bleeding
TTITLE1=The Accident
TTITLE2=Black Dog Yodel
TTITLE3=Pills I Took
TTITLE4=Radio Country
EXTD=YEAR: 2005
EXTT0=
EXTT1=
EXTT2=
EXTT3=
EXTT4=
PLAYORDER=
